<?xml version="1.0" standalone="no"?>
<!DOCTYPE svg PUBLIC "-//W3C//DTD SVG 20010904//EN"
 "http://www.w3.org/TR/2001/REC-SVG-20010904/DTD/svg10.dtd">
<svg version="1.0" xmlns="http://www.w3.org/2000/svg"
 width="1280.000000pt" height="867.000000pt" viewBox="0 0 1280.000000 867.000000"
 preserveAspectRatio="xMidYMid meet">
<metadata>
Created by potrace 1.15, written by Peter Selinger 2001-2017
</metadata>
<g transform="translate(0.000000,867.000000) scale(0.100000,-0.100000)"
fill="#000000" stroke="none">
<path d="M2664 8647 c4 -33 62 -137 150 -267 88 -131 301 -347 433 -440 711
-499 1836 -690 4128 -702 496 -3 500 -3 547 19 25 12 64 38 87 58 45 41 54 70
91 300 13 81 27 139 38 155 40 55 149 111 282 146 46 12 79 12 205 3 169 -13
936 -7 1245 10 486 27 593 34 990 64 509 38 560 39 616 10 47 -25 100 -81 139
-147 24 -41 31 -46 61 -46 55 0 113 36 205 129 67 67 95 104 125 166 37 74 39
85 39 170 0 78 -4 97 -28 146 -53 108 -138 183 -244 215 -50 15 -227 14 -2158
-17 -863 -14 -1767 -22 -2165 -20 -285 1 -631 6 -2220 31 -344 5 -920 14
-1280 20 -360 5 -798 12 -972 16 l-316 6 2 -25z"/>
<path d="M8610 6384 c-96 -2 -548 -8 -1005 -13 -1170 -15 -1525 -21 -2140 -32
-341 -6 -1434 -7 -2971 -3 l-2431 7 -6 -48 c-4 -26 -7 -440 -7 -919 l0 -871
23 -37 c41 -68 136 -124 307 -181 831 -275 3124 -314 4207 -71 292 65 500 162
548 255 14 26 21 29 64 29 50 0 140 27 190 56 15 9 36 30 45 46 35 58 56 280
75 760 7 175 12 223 25 243 23 35 107 81 206 112 84 26 86 26 230 14 415 -33
1584 3 2525 77 398 31 395 32 557 -158 23 -27 32 -31 55 -25 116 28 276 173
337 305 14 32 21 66 21 115 0 130 -76 242 -212 310 l-58 30 -205 1 c-113 0
-284 -1 -380 -2z"/>
<path d="M2773 3295 c7 -258 17 -364 53 -545 181 -912 784 -1287 1978 -1230
371 17 724 57 1346 150 690 104 898 134 1090 160 436 58 774 92 1157 114 l223
12 67 35 c84 42 94 59 128 239 14 74 31 148 37 163 15 39 96 90 191 122 96 32
101 32 262 15 332 -35 1361 -6 2385 67 411 30 472 31 522 10 46 -19 102 -70
150 -134 46 -63 60 -65 148 -21 88 44 207 164 251 254 45 91 47 180 7 266 -46
100 -150 182 -260 207 -43 10 -509 6 -2250 -20 -970 -14 -1601 -14 -4040 2
l-2037 12 -61 -56 c-70 -66 -176 -120 -268 -138 -94 -18 -257 -6 -367 26 -241
71 -516 257 -655 442 -24 32 -48 63 -53 68 -6 6 -7 -79 -4 -220z"/>
<path d="M10 972 c0 -19 151 -152 243 -213 581 -388 1673 -596 3647 -694 406
-20 798 -33 1175 -40 171 -3 344 -7 385 -10 41 -2 494 -7 1005 -11 861 -6 934
-6 989 10 81 24 134 60 152 103 8 19 24 75 36 125 25 105 32 112 136 132 57
11 72 11 76 1 6 -18 84 -42 186 -57 113 -17 1102 -17 1445 0 578 30 1152 65
1336 83 99 10 123 9 170 -4 68 -20 115 -56 165 -125 51 -70 61 -75 120 -57
108 32 269 194 315 315 26 69 22 153 -12 225 -31 67 -110 144 -184 181 l-60
29 -315 -1 c-173 -1 -785 -7 -1360 -15 -1712 -23 -3677 -17 -8862 27 -546 5
-788 4 -788 -4z"/>
</g>
</svg>
