<?xml version="1.0" standalone="no"?>
<!DOCTYPE svg PUBLIC "-//W3C//DTD SVG 20010904//EN"
 "http://www.w3.org/TR/2001/REC-SVG-20010904/DTD/svg10.dtd">
<svg version="1.0" xmlns="http://www.w3.org/2000/svg"
 width="878.000000pt" height="1280.000000pt" viewBox="0 0 878.000000 1280.000000"
 preserveAspectRatio="xMidYMid meet">
<g transform="translate(0.000000,1280.000000) scale(0.100000,-0.100000)"
fill="#000000" stroke="none">
<path d="M20 12750 c0 -8 20 -132 45 -276 135 -783 360 -1689 540 -2175 188
-504 561 -1316 893 -1944 322 -609 659 -1183 1157 -1970 149 -236 342 -542
427 -680 351 -564 587 -913 780 -1152 51 -63 92 -105 76 -77 -94 158 -847
1577 -1058 1994 -230 455 -311 616 -389 781 -49 102 -146 282 -216 400 -343
578 -460 783 -647 1129 -277 513 -596 1176 -576 1196 2 1 69 -57 149 -129 80
-73 257 -233 394 -357 137 -124 326 -295 420 -380 94 -85 285 -258 425 -385
140 -126 284 -257 320 -290 36 -33 178 -161 315 -285 137 -124 326 -295 420
-380 94 -85 283 -256 420 -380 137 -124 326 -295 420 -380 94 -85 261 -236
370 -335 110 -99 220 -198 244 -220 35 -32 42 -35 31 -15 -16 31 -485 729
-856 1277 -1057 1557 -1535 2180 -2713 3528 -346 395 -644 723 -1160 1275
-222 237 -231 247 -231 230z"/>
<path d="M5641 4747 c-125 -188 -231 -353 -235 -364 -8 -26 19 -90 158 -373
151 -309 197 -394 206 -380 9 14 40 -38 170 -280 252 -470 539 -954 700 -1180
29 -41 117 -158 195 -260 265 -347 401 -547 470 -693 92 -194 122 -332 105
-487 -14 -138 -12 -249 6 -310 25 -84 105 -157 246 -225 301 -144 487 -158
703 -51 121 59 200 137 255 249 63 127 91 314 56 363 -8 10 -16 17 -18 14 -2
-3 -8 -14 -14 -25 -6 -11 -20 -20 -30 -20 -26 0 -1241 1854 -1249 1905 -10 61
-47 123 -99 161 -33 25 -70 71 -116 141 -37 56 -328 503 -648 991 -320 488
-582 894 -582 902 0 20 11 45 20 45 22 0 530 -647 1199 -1527 139 -183 255
-333 257 -333 2 0 -12 33 -32 73 -43 85 -106 177 -428 627 -283 396 -300 421
-285 431 8 5 5 17 -12 40 -121 174 -663 874 -692 894 -12 8 -34 15 -49 15 -25
0 -48 -30 -257 -343z"/>
</g>
</svg>
